<?xml version="1.0" encoding="UTF-8"?>
<svg id="Layer_1" xmlns="http://www.w3.org/2000/svg" version="1.1" viewBox="0 0 512 512">
  <!-- Generator: Adobe Illustrator 29.8.4, SVG Export Plug-In . SVG Version: 2.1.1 Build 6)  -->
  <path d="M256,76.371c-99.206,0-179.629,80.422-179.629,179.629s80.422,179.629,179.629,179.629,179.629-80.422,179.629-179.629-80.422-179.629-179.629-179.629ZM346.251,346.251h0c-5.858,5.858-15.355,5.858-21.213,0l-69.038-69.037-69.037,69.038c-5.858,5.858-15.355,5.858-21.213,0-5.858-5.858-5.858-15.355,0-21.213l69.037-69.038-69.038-69.037c-5.858-5.858-5.858-15.355,0-21.213h0c5.858-5.858,15.355-5.858,21.213,0l69.038,69.038,69.037-69.038c5.858-5.858,15.355-5.858,21.213,0h0c5.858,5.858,5.858,15.355,0,21.213l-69.037,69.038,69.038,69.037c5.858,5.858,5.858,15.355,0,21.213Z"/>
</svg>