<?xml version="1.0" encoding="UTF-8"?>
<svg id="Layer_1" xmlns="http://www.w3.org/2000/svg" version="1.1" viewBox="0 0 64 64">
  <!-- Generator: Adobe Illustrator 29.8.3, SVG Export Plug-In . SVG Version: 2.1.1 Build 3)  -->
  <path d="M46.101,52.981h-28.202c-3.794,0-6.88-3.087-6.88-6.88v-28.202c0-3.794,3.087-6.88,6.88-6.88h28.202c3.794,0,6.88,3.087,6.88,6.88v28.202c0,3.794-3.087,6.88-6.88,6.88ZM17.899,14.769c-1.726,0-3.13,1.404-3.13,3.13v28.202c0,1.726,1.404,3.13,3.13,3.13h28.202c1.726,0,3.13-1.404,3.13-3.13v-28.202c0-1.726-1.404-3.13-3.13-3.13h-28.202Z"/>
  <path d="M48.527,58.814h-7.021v-3.75h7.021c3.756,0,6.812-3.056,6.812-6.812v-7.021h3.75v7.021c0,5.824-4.738,10.562-10.562,10.562Z"/>
  <path d="M8.661,22.768h-3.75v-7.021c0-5.824,4.738-10.562,10.562-10.562h7.021v3.75h-7.021c-3.756,0-6.812,3.056-6.812,6.812v7.021Z"/>
  <g>
    <path d="M39.611,45.36h-3.233v-3.75h3.233c1.172,0,2.125-.953,2.125-2.125v-3.233h3.75v3.233c0,3.24-2.636,5.875-5.875,5.875Z"/>
    <path d="M22.263,27.748h-3.75v-3.233c0-3.24,2.636-5.875,5.875-5.875h3.233v3.75h-3.233c-1.172,0-2.125.953-2.125,2.125v3.233Z"/>
  </g>
</svg>