<?xml version="1.0" encoding="UTF-8"?>
<svg id="Layer_1" xmlns="http://www.w3.org/2000/svg" version="1.1" viewBox="0 0 512 512">
  <!-- Generator: Adobe Illustrator 29.8.3, SVG Export Plug-In . SVG Version: 2.1.1 Build 3)  -->
  <path d="M417.261,182.221l-75.854-75.854c-5.858-5.858-5.858-15.355,0-21.213h0c5.858-5.858,15.355-5.858,21.213,0l75.854,75.854,21.213,21.213-21.213,21.213-75.854,75.854c-5.858,5.858-15.355,5.858-21.213,0h0c-5.858-5.858-5.858-15.355,0-21.213l75.854-75.854Z"/>
  <path d="M176.495,167.221h240.755v30h-240.755c-52.016,0-94.183,42.167-94.183,94.183v15.652c0,52.016,42.167,94.184,94.184,94.184h225.754c8.284,0,15,6.716,15,15h0c0,8.284-6.716,15-15,15h-225.755c-68.584,0-124.183-55.598-124.183-124.183v-15.653c0-68.584,55.598-124.183,124.183-124.183Z"/>
</svg>